<?xml version="1.0" encoding="utf-8"?>
<!-- Generator: Adobe Illustrator 27.5.0, SVG Export Plug-In . SVG Version: 6.00 Build 0)  -->
<svg version="1.1" xmlns="http://www.w3.org/2000/svg" xmlns:xlink="http://www.w3.org/1999/xlink" x="0px" y="0px"
	 viewBox="0 0 500 500" style="enable-background:new 0 0 500 500;" xml:space="preserve">
<g id="BACKGROUND">
	<rect style="fill:#FFFFFF;" width="500" height="500"/>
</g>
<g id="OBJECTS">
	<path style="fill:#F5F5FE;" d="M50.259,171.622c-6.313,54.648,19.749,110.389,61.725,145.946
		c41.976,35.557,98.048,52.035,153.06,51.957c42.263-0.06,85.322-9.792,120.435-33.313c35.113-23.521,61.377-61.88,64.843-104.001
		c3.466-42.121-18.531-86.689-56.684-104.871c-29.133-13.883-63.652-11.902-93.406-24.397c-17.259-7.248-32.137-19.04-47.157-30.212
		c-15.019-11.171-30.804-22.047-48.857-26.991c-28.653-7.847-62.214-0.109-87.469,14.481
		C76.739,83.337,55.439,126.786,50.259,171.622z"/>
	<g>
		<path style="fill:#BFBFFC;" d="M347.297,329.003c-8.959-9.166-13.61-22.376-12.371-35.133
			c1.451-14.931,10.261-27.949,18.054-40.767c6.719-11.051,13.26-23.393,13.278-36.662c0.009-6.249-0.772-10.14-4.06-15.596
			c-3.211-5.327-7.07-10.233-10.253-15.58c-4.903-8.237-8.107-18.681-3.891-27.289c2.278-4.651,6.417-8.094,10.622-11.118
			c4.205-3.024,8.66-5.835,12.025-9.772c6.367-7.448,4.319-17.057,6.619-25.854c2.212-8.462,10.331-15.015,19.069-15.394
			c8.738-0.378,17.392,5.45,20.327,13.689c4.17,11.705-2.704,24.888,0.239,36.959c1.512,6.201,5.917,12.287,11.782,15.022
			c5.648,2.634,9.764,6.377,13.103,11.853c6.438,10.557,7.829,24.406,2.433,35.687c-4.813,10.061-14.436,19.258-12.473,30.236
			c1.655,9.254,10.852,14.834,16.766,22.142c8.776,10.847,10.234,26.568,5.369,39.645c-4.866,13.077-15.393,23.552-27.629,30.257
			C402.823,344.199,368.034,350.218,347.297,329.003z"/>
		<path style="fill:#F5F5FE;" d="M434.212,264.062c-5.583,3.522-11.165,7.043-16.748,10.565c-0.81-3.921-1.619-7.842-2.428-11.763
			c-0.609-2.949-5.112-1.657-4.505,1.286c0.877,4.249,1.754,8.497,2.631,12.746c0.028,0.136,0.072,0.253,0.116,0.371
			c-5.476,3.454-10.952,6.909-16.428,10.363c0.254-18.376,0.508-36.752,0.762-55.127c11.118-11.606,22.235-23.212,33.353-34.818
			c2.086-2.178-1.252-5.462-3.342-3.281c-9.972,10.41-19.944,20.82-29.916,31.23c0.171-12.38,0.342-24.76,0.513-37.14
			c0.16-11.573,0.32-23.145,0.48-34.718c1.908-2.083,3.815-4.165,5.723-6.248c2.034-2.221-1.301-5.509-3.342-3.281
			c-0.761,0.831-1.523,1.662-2.284,2.494c0.116-8.409,0.232-16.817,0.349-25.225c0.042-3.015-4.641-2.972-4.683,0.043
			c-0.348,25.174-0.696,50.348-1.043,75.522l-27.626-24.394c-2.254-1.99-5.546,1.342-3.281,3.342
			c10.152,8.965,20.305,17.93,30.458,26.894c0.119,0.105,0.242,0.187,0.366,0.264c-0.406,29.378-0.812,58.756-1.218,88.134
			c-0.095,0.365-0.099,0.745-0.015,1.11l-0.187,13.518c-13.949-5.887-27.898-11.774-41.847-17.661
			c-2.748-1.16-5.099,2.895-2.327,4.065c14.305,6.037,28.61,12.075,42.914,18.112c0.413,0.175,0.815,0.22,1.194,0.186
			c-0.22,15.891-0.439,31.782-0.659,47.673c-0.309,22.327-0.617,44.653-0.925,66.979c-0.042,3.015,4.641,2.972,4.683-0.043
			c0.608-44.014,1.216-88.028,1.824-132.043c13.28-8.377,26.56-16.754,39.839-25.131
			C439.157,266.479,436.771,262.448,434.212,264.062z"/>
	</g>
	<g>
		<path style="fill:#3A2664;" d="M134.754,262.938c-0.119-6.179,4.603-11.235,8.876-15.7c4.273-4.465,8.703-9.964,7.808-16.079
			c-0.911-6.227-6.992-10.287-12.83-12.636c-5.838-2.349-12.318-4.008-16.579-8.639c-4.6-4.998-5.531-12.401-4.881-19.162
			c0.65-6.762,2.64-13.362,2.985-20.146c0.345-6.784-1.305-14.189-6.536-18.523c-5.193-4.302-13.137-4.492-18.973-1.114
			c-5.837,3.379-9.535,9.853-10.349,16.548c-0.666,5.475,0.422,10.993,0.717,16.5c0.295,5.508-0.361,11.445-3.903,15.672
			c-4.251,5.073-11.535,6.436-16.564,10.739c-9.871,8.444-5.683,19.54,0.159,28.683c6.663,10.427,1.613,17.423-4.228,26.84
			c-3.581,5.774-6.733,11.852-8.806,18.34c-3.91,12.237-3.526,26.565,4.155,36.862c6.044,8.102,15.768,12.706,25.576,15.152
			c11.578,2.888,23.978,3.148,35.334-0.518c11.356-3.667,21.561-11.475,26.983-22.105c5.421-10.63,5.594-24.068-0.597-34.27
			C139.864,274.049,134.875,269.177,134.754,262.938z"/>
		<path style="fill:#F5F5FE;" d="M125.513,279.88c-7.445,6.72-14.889,13.441-22.334,20.162c0.359-22.011,0.718-44.022,1.077-66.033
			c0.389-0.012,0.794-0.11,1.204-0.342c5.208-2.954,9.79-6.815,13.584-11.446c2.052-2.505-1.654-5.932-3.717-3.413
			c-3.148,3.842-6.797,7.045-10.981,9.649c0.009-0.536,0.018-1.073,0.026-1.609c0.305-18.671,0.609-37.343,0.914-56.014
			c0.053-3.249-4.989-3.024-5.042,0.215c-0.428,26.238-0.856,52.477-1.284,78.715c-8.085-6.109-15.561-12.925-22.401-20.429
			c-2.19-2.403-5.588,1.331-3.413,3.717c7.764,8.519,16.348,16.153,25.714,22.871c-0.34,20.847-0.68,41.695-1.02,62.542
			c-9.316-7.326-18.633-14.652-27.949-21.978c-2.54-1.998-5.971,1.705-3.413,3.717c10.42,8.194,20.84,16.387,31.259,24.581
			c-0.241,14.801-0.483,29.603-0.724,44.404l-0.914,56.014c-0.053,3.249,4.989,3.023,5.042-0.215
			c0.642-39.37,1.285-78.74,1.927-118.109c0.067-0.051,0.137-0.091,0.203-0.15c8.653-7.811,17.306-15.623,25.96-23.435
			C131.642,281.115,127.907,277.718,125.513,279.88z"/>
	</g>
	<g>
		<g>
			<path style="fill:#FF910D;" d="M98.733,382.404c-8.148-14.098-18.158-27.311-30.844-37.519c-2.085-1.678-4.278-3.293-6.792-4.208
				c-2.515-0.915-5.42-1.058-7.799,0.166c-2.511,1.291-4.112,3.939-4.757,6.688c-0.645,2.749-0.453,5.62-0.161,8.428
				c2.718,26.141,15.291,51.572,33.046,70.949h38.189C113.259,411.915,106.881,396.501,98.733,382.404z"/>
			<path style="fill:#F5F5FE;" d="M101.148,417.194c-4.961-9.189-10.181-18.238-15.655-27.132
				c-5.474-8.893-11.202-17.63-17.173-26.198c-3.354-4.813-6.787-9.572-10.293-14.276c-0.38-0.51-1.249-0.012-0.863,0.505
				c6.24,8.373,12.245,16.922,18.001,25.635c5.756,8.714,11.263,17.591,16.514,26.617c2.95,5.071,5.818,10.19,8.605,15.352
				C100.59,418.266,101.454,417.761,101.148,417.194z"/>
			<path style="fill:#FFD251;" d="M96.844,312.644c-2.316-2.425-4.789-4.836-7.885-6.122c-3.097-1.286-6.98-1.211-9.48,1.023
				c-2.047,1.829-2.793,4.675-3.36,7.361c-8.201,38.881,0.673,80.009,24.242,112l42.278,0.177
				C142.685,384.981,125.923,343.092,96.844,312.644z"/>
			<path style="fill:#F5F5FE;" d="M125.964,415.777c-3.582-13.471-7.729-26.791-12.433-39.913
				c-4.679-13.052-9.907-25.908-15.661-38.522c-3.248-7.12-6.667-14.162-10.248-21.121c-0.295-0.572-1.158-0.067-0.863,0.505
				c6.359,12.355,12.203,24.976,17.498,37.824c5.282,12.815,10.026,25.852,14.214,39.066c2.353,7.423,4.529,14.902,6.53,22.428
				C125.165,416.664,126.13,416.401,125.964,415.777z"/>
		</g>
		<g>
			<path style="fill:#FF910D;" d="M463.632,340.949c-2.361-3.983-6.739-7.188-11.332-6.602c-3.389,0.432-6.238,2.817-8.283,5.553
				c-2.045,2.736-3.478,5.878-5.361,8.728c-4.042,6.118-10.206,10.805-17.182,13.063c-3.934,1.274-8.251,1.869-11.498,4.428
				c-3.47,2.734-5.052,7.216-5.887,11.554c-0.835,4.339-1.109,8.833-2.729,12.943c-1.723,4.371-4.854,8.02-8.001,11.509
				c-3.147,3.49-6.411,6.978-8.493,11.19s-2.835,9.357-0.795,13.59l24.44,0c-1.442-6.494,1.614-13.601,7.242-17.147
				c3.694-2.326,8.127-3.066,12.35-4.17c4.223-1.104,8.598-2.804,11.147-6.347c5.251-7.301,0.517-18.913,6.42-25.698
				c2.963-3.405,7.741-4.466,11.587-6.828c4.178-2.566,7.287-6.818,8.465-11.578C466.9,350.378,466.132,345.167,463.632,340.949z"/>
			<path style="fill:#F5F5FE;" d="M451.726,348.182c-0.541,5.573-3.751,10.808-8.44,13.861c-5.208,3.391-11.989,3.335-16.836,7.409
				c-2.247,1.889-3.449,4.431-3.682,7.342c-0.261,3.261,0.508,6.567-0.119,9.806c-1.232,6.361-6.834,10.5-11.726,14.104
				c-5.377,3.961-11.333,8.723-11.932,15.905c-0.054,0.641,0.947,0.638,1,0c0.547-6.556,6.07-11.078,10.978-14.703
				c4.882-3.606,10.291-7.454,12.248-13.504c0.976-3.018,0.59-6.136,0.508-9.243c-0.042-1.586,0.009-3.193,0.478-4.721
				c0.448-1.459,1.298-2.73,2.397-3.779c4.591-4.38,11.555-4.27,16.801-7.504c5.219-3.217,8.734-8.876,9.325-14.972
				C452.788,347.542,451.788,347.546,451.726,348.182z"/>
			<path style="fill:#FFD251;" d="M418.955,312.539c-1.749-4.434-5.769-8.159-10.514-8.599c-5.318-0.493-10.324,3.171-13.036,7.772
				c-2.712,4.601-3.597,10.017-4.458,15.288c-0.861,5.271-1.8,10.687-4.597,15.238c-4.564,7.424-13.693,11.939-16.018,20.338
				c-1.908,6.894,1.467,14.089,1.583,21.241c0.121,7.403-3.232,14.343-5.767,21.299c-2.535,6.956-4.242,14.925-0.983,21.573
				l27.13,0.218c9.038-6.845,13.766-19.905,10.942-30.886c-0.974-3.787-2.731-7.535-2.292-11.42
				c1.027-9.074,12.958-13.379,15.104-22.255c1.248-5.161-1.177-10.456-1.399-15.761c-0.287-6.87,3.102-13.291,4.708-19.977
				C420.473,321.973,420.704,316.972,418.955,312.539z"/>
			<path style="fill:#F5F5FE;" d="M407.092,325.38c-0.044-0.638-1.044-0.643-1,0c0.452,6.54-1.319,13.138-4.952,18.594
				c-1.923,2.888-4.394,5.255-7.022,7.496c-2.608,2.224-5.31,4.386-7.434,7.101c-1.915,2.448-3.39,5.318-3.622,8.461
				c-0.257,3.477,1.188,6.735,2.088,10.017c0.483,1.759,0.76,3.53,0.674,5.36c-0.089,1.869-0.507,3.707-1.083,5.482
				c-1.134,3.494-2.918,6.716-4.46,10.036c-1.579,3.399-2.943,6.979-3.042,10.769c-0.087,3.367,0.816,6.782,3.115,9.314
				c0.434,0.477,1.139-0.231,0.707-0.707c-4.672-5.145-2.711-12.736-0.154-18.356c2.874-6.315,6.945-12.795,5.693-20.042
				c-0.585-3.384-2.216-6.536-2.52-9.976c-0.294-3.329,0.974-6.439,2.898-9.099c2.023-2.798,4.721-5.002,7.336-7.219
				c2.558-2.169,5.015-4.411,6.995-7.135C405.494,339.718,407.583,332.48,407.092,325.38z"/>
		</g>
	</g>
	<g>
		<path style="fill:#261643;" d="M287.195,408.33h-21.458V133.629c0-8.647-7.035-15.682-15.682-15.682H140.269
			c-8.647,0-15.682,7.035-15.682,15.682V408.33h-21.458c-4.921,0-8.925,4.004-8.925,8.925v9.651h5v-9.651
			c0-2.164,1.761-3.925,3.925-3.925h47.915c2.164,0,3.925,1.761,3.925,3.925v9.651h5v-9.651c0-4.921-4.004-8.925-8.925-8.925
			h-21.458V133.629c0-5.89,4.792-10.682,10.682-10.682h109.787c5.89,0,10.682,4.792,10.682,10.682V408.33h-21.457
			c-4.922,0-8.926,4.004-8.926,8.925v9.651h5v-9.651c0-2.164,1.761-3.925,3.926-3.925h47.915c2.164,0,3.926,1.761,3.926,3.925v9.651
			h5v-9.651C296.121,412.334,292.117,408.33,287.195,408.33z"/>
		<g>
			<g>
				<g>
					<path style="fill:#3A2664;" d="M214.101,159.982c-9.749,0-21.544-2.291-35.033-9.139l-2.741-1.391l2.382-1.942
						c0.606-0.495,15.051-12.11,32.584-12.11c17.25,0,30.084,7.587,34.123,12.369l1.32,1.563l-1.592,1.285
						C244.45,151.177,233.209,159.982,214.101,159.982z M183.858,148.726c30.333,14.114,50.806,3.955,56.908,0.078
						c-4.135-3.497-14.271-9.404-29.472-9.404C199.341,139.401,188.628,145.532,183.858,148.726z"/>
					<path style="fill:#3A2664;" d="M211.931,139.06c-1.104,0-2-0.896-2-2v-8.511c0-1.1,0.888-1.993,1.987-2
						c0.015,0,2.74-0.073,4.425-1.878c1.048-1.122,1.525-2.762,1.42-4.873c-0.12-2.397-2.011-3.324-3.128-3.663
						c-2.156-0.653-4.334-0.115-5.015,0.799c-0.659,0.887-1.912,1.071-2.798,0.412c-0.886-0.659-1.071-1.912-0.412-2.798
						c1.79-2.405,5.738-3.345,9.386-2.24c3.558,1.08,5.787,3.806,5.961,7.29c0.163,3.257-0.688,5.896-2.529,7.843
						c-1.663,1.759-3.776,2.522-5.299,2.854v6.765C213.931,138.165,213.035,139.06,211.931,139.06z"/>
				</g>
			</g>
			<g>
				<path style="fill:#8D90FE;" d="M229.897,207.303c13.021-12.255,12.596-34.128,12.596-34.128l5.617,6.298
					c9.872-2.383,19.745-11.234,19.745-11.234s-9.598-12.488-17.191-20.67c-4.107-4.425-11.231-7.195-18.219-8.926
					c-0.712,9.358-9.341,16.756-19.909,16.756s-19.197-7.398-19.909-16.756c-6.987,1.731-14.112,4.501-18.219,8.926
					c-7.594,8.181-17.191,20.67-17.191,20.67s9.872,8.851,19.745,11.234l5.617-6.298c0,0-0.425,21.872,12.596,34.128
					c-19.149,18.638-27.521,110.042-44.936,149.872c0,0,26.042,11.234,62.298,11.234c36.255,0,62.298-11.234,62.298-11.234
					C257.418,317.345,249.046,225.941,229.897,207.303z"/>
				<g>
					<g>
						<path style="fill:#BFBFFC;" d="M241.666,274.056c-1.285-7.288-2.571-14.576-3.856-21.865
							c-1.153-6.536-2.292-13.083-3.883-19.531c-1.779-7.212-4.15-14.305-7.656-20.872c-0.303-0.568-1.167-0.063-0.863,0.505
							c6.29,11.78,8.768,25.057,11.07,38.075c2.54,14.371,5.069,28.744,7.604,43.115c1.43,8.107,2.86,16.214,4.289,24.321
							c0.112,0.633,1.075,0.365,0.964-0.266C246.778,303.045,244.222,288.55,241.666,274.056z"/>
						<path style="fill:#BFBFFC;" d="M236.93,291.719c-1.657-9.891-3.314-19.781-4.972-29.672
							c-0.935-5.581-1.87-11.163-2.805-16.744c-0.106-0.633-1.07-0.365-0.964,0.266c1.657,9.891,3.314,19.781,4.971,29.672
							l4.971,29.672c0.935,5.581,1.87,11.163,2.805,16.744c0.106,0.633,1.07,0.365,0.964-0.266L236.93,291.719z"/>
						<path style="fill:#BFBFFC;" d="M234.944,172.914c-2.592,7.381-8.765,13.115-16.331,15.122
							c-2.232,0.592-4.529,0.851-6.836,0.789c-0.644-0.017-0.643,0.983,0,1c8.371,0.226,16.405-3.85,21.151-10.747
							c1.255-1.823,2.247-3.812,2.981-5.898C236.122,172.572,235.156,172.31,234.944,172.914z"/>
						<path style="fill:#BFBFFC;" d="M233.838,183.408c-3.46,4.591-9.521,5.669-14.832,6.575c-0.633,0.108-0.365,1.072,0.266,0.964
							c5.637-0.962,11.779-2.19,15.43-7.035C235.089,183.398,234.221,182.899,233.838,183.408z"/>
						<path style="fill:#BFBFFC;" d="M175.819,171.192c-2.819-1.189-5.515-2.66-8.054-4.365c-0.536-0.36-1.037,0.506-0.505,0.863
							c2.615,1.756,5.391,3.242,8.293,4.466c0.251,0.106,0.548-0.114,0.615-0.349C176.251,171.519,176.067,171.296,175.819,171.192z
							"/>
						<path style="fill:#BFBFFC;" d="M177.848,169.706c-1.255-0.331-2.401-0.973-3.333-1.875c-0.194-0.188-0.514-0.193-0.707,0
							c-0.189,0.189-0.195,0.519,0,0.707c1.053,1.018,2.358,1.758,3.775,2.132c0.261,0.069,0.543-0.087,0.615-0.349
							C178.268,170.062,178.11,169.775,177.848,169.706z"/>
					</g>
				</g>
			</g>
		</g>
		<g>
			<g>
				<path style="fill:#E6E7FD;" d="M195.521,180.427l-25.34,6.797c-3.905,6.768-6.095,10.563-10,17.331l18.886,70.41l52.671-14.128
					l-18.886-70.41C206.085,186.522,202.29,184.333,195.521,180.427z M186.663,193.234c-1.625,1.12-3.851,0.711-4.972-0.914
					c-1.121-1.625-0.711-3.851,0.914-4.972c1.625-1.121,3.851-0.711,4.972,0.914C188.697,189.888,188.288,192.113,186.663,193.234z"
					/>
				<g>
					<g>
						<path style="fill:#3A2664;" d="M201.944,216.988l-3.139-11.705l-2.167,2.169l-6.735-6.731
							c-0.663-0.665-1.639-0.926-2.547-0.683c-0.907,0.243-1.621,0.958-1.862,1.864l-4.154,15.518
							c-0.376,1.403,0.46,2.851,1.863,3.226l0.504,0.136c0.666,0.177,1.381,0.091,1.998-0.265c0.609-0.352,1.044-0.919,1.227-1.6
							l2.741-10.242l2.872,2.871l-2.307,2.307L201.944,216.988z"/>
						<path style="fill:#3A2664;" d="M217.575,228.891l-11.398-11.318c-0.5-0.497-1.162-0.768-1.867-0.766
							c-0.704,0.003-1.364,0.279-1.86,0.778l-0.366,0.368c-0.325,0.327-0.559,0.735-0.678,1.183
							c-0.059,0.222-0.088,0.452-0.088,0.683c0.003,0.703,0.279,1.364,0.779,1.861l7.523,7.47l-3.919,1.065l-0.857-3.149
							l-8.536,8.598l11.715,3.096l-0.804-2.959l9.19-2.497c0.906-0.246,1.617-0.962,1.857-1.87
							C218.507,230.526,218.242,229.552,217.575,228.891z"/>
						<path style="fill:#3A2664;" d="M195.13,234.306c-0.161-0.164-0.342-0.307-0.54-0.424c-0.605-0.359-1.313-0.461-1.996-0.287
							l-10.273,2.618l1.099-3.91l3.141,0.883l-2.992-11.742l-8.674,8.462l2.952,0.83l-2.578,9.169
							c-0.254,0.903-0.005,1.882,0.65,2.553c0.655,0.671,1.627,0.945,2.536,0.713l15.567-3.967c0.011-0.003,0.022-0.006,0.033-0.009
							c1.389-0.372,2.226-1.798,1.871-3.195l-0.129-0.505c-0.115-0.447-0.345-0.858-0.668-1.188L195.13,234.306z"/>
					</g>
				</g>
				<path style="fill:#3A2664;" d="M217.633,240.583l-36.489,9.787c-0.419,0.113-0.668,0.544-0.556,0.964
					c0.113,0.42,0.544,0.668,0.963,0.556l36.489-9.787c0.42-0.113,0.668-0.544,0.556-0.963
					C218.484,240.72,218.052,240.471,217.633,240.583z"/>
				<path style="fill:#3A2664;" d="M218.878,245.226l-36.489,9.787c-0.419,0.113-0.668,0.544-0.556,0.964
					c0.113,0.42,0.544,0.668,0.964,0.556l36.489-9.787c0.42-0.113,0.668-0.544,0.556-0.963
					C219.729,245.363,219.298,245.113,218.878,245.226z"/>
				<path style="fill:#3A2664;" d="M220.123,249.869l-36.489,9.787c-0.419,0.112-0.668,0.544-0.556,0.963
					c0.113,0.42,0.544,0.668,0.964,0.556l36.489-9.787c0.42-0.113,0.668-0.544,0.556-0.963
					C220.974,250.005,220.543,249.756,220.123,249.869z"/>
			</g>
			<path style="fill:#261643;" d="M186.82,181.396c-0.396-0.656-1.159-0.996-1.913-0.907c-1.828,0.217-2.121,2.422-1.971,3.904
				c0.098,0.97,0.387,1.899,0.868,2.748c0.317,0.56,1.182,0.057,0.864-0.505c-0.39-0.688-0.652-1.455-0.732-2.243
				c-0.074-0.725-0.074-1.589,0.245-2.262c0.26-0.55,0.867-0.839,1.438-0.547c0.527,0.27,0.615,0.977,0.316,1.443
				c-0.349,0.543,0.517,1.045,0.863,0.505C187.205,182.898,187.21,182.041,186.82,181.396z"/>
			<path style="fill:#261643;" d="M202.698,148.954c-1.286-0.791-2.866-0.117-4.066,0.511c-0.571,0.298-0.066,1.161,0.505,0.863
				c0.954-0.499,2.678-1.323,3.452-0.108c0.618,0.97,0.139,2.4-0.126,3.407c-0.663,2.51-1.503,4.975-2.516,7.365
				c-2.042,4.821-4.771,9.367-8.076,13.427c-1.847,2.269-3.873,4.386-6.052,6.337c-0.481,0.43,0.229,1.135,0.707,0.707
				c4.289-3.84,7.975-8.341,10.91-13.294c1.478-2.495,2.759-5.104,3.84-7.795c0.533-1.325,1.015-2.67,1.443-4.032
				c0.408-1.297,0.85-2.635,1.058-3.982C203.965,151.136,203.867,149.673,202.698,148.954z"/>
		</g>
	</g>
	<g>
		<g>
			<path style="fill:#FF910D;" d="M181.904,266.769c1.309-13.176-3.491-26.833-12.755-36.293
				c-9.264-9.459-22.82-14.542-36.02-13.507c-0.939,9.289-1.451,19.421,1.416,28.307c2.97,9.205,9.865,17.071,18.602,21.221
				C161.884,270.647,172.893,270.283,181.904,266.769z"/>
			<path style="fill:#FFD251;" d="M186.885,269.401c-0.085-12.03,5.399-23.986,14.571-31.77c9.172-7.785,21.86-11.251,33.716-9.213
				c0.074,8.483-0.309,17.693-3.645,25.492c-3.456,8.08-10.351,14.621-18.602,17.646
				C204.674,274.581,194.745,273.332,186.885,269.401z"/>
			<path style="fill:#3A2664;" d="M205.068,247.745c-0.726-0.726-1.729-0.592-2.466,0c-7.85,6.301-14.052,14.469-18.149,23.635
				c-1.778-6.1-4.273-11.948-7.953-17.28c-2.292-3.321-4.975-6.361-8.096-8.926c-0.727-0.598-1.755-0.712-2.467,0
				c-0.616,0.616-0.731,1.865,0,2.466c11.391,9.361,15.883,24.007,18.054,38.063c0.69,4.468,1.173,8.964,1.659,13.457
				c0.101,0.936,0.729,1.744,1.744,1.744c0.864,0,1.846-0.802,1.744-1.744c-0.807-7.454-1.656-15.099-3.328-22.495
				c0.233-0.218,0.42-0.497,0.54-0.816c3.795-10.047,10.352-18.924,18.718-25.639C205.803,249.622,205.683,248.36,205.068,247.745z"
				/>
			<polygon style="fill:#3A2664;" points="209.851,282.404 208.658,289.715 207.925,294.229 207.674,295.771 206.935,300.284 
				203.544,321.094 164.854,321.094 161.463,300.284 160.731,295.771 160.48,294.229 159.747,289.715 158.554,282.404 			"/>
		</g>
		<polygon style="fill:#BFBFFC;" points="208.658,289.715 207.925,294.229 160.48,294.229 159.747,289.715 		"/>
		<polygon style="fill:#BFBFFC;" points="207.674,295.771 206.935,300.284 161.463,300.284 160.731,295.771 		"/>
	</g>
	<g>
		<path d="M371.256,131.131c-1.389-5.522-4.407-10.484-6.358-15.834c-1.651-4.527-2.721-9.156-2.574-13.994
			c0.154-5.041,1.124-10.052,0.808-15.106c-0.124-1.987-0.453-3.981-1.218-5.82c-1.88-4.524-6.828-7.578-11.716-7.261
			c-2.723,0.176-5.082,1.924-7.844,1.916c-6.738-0.02-13.049,1.48-17.655,6.741c-5.127,5.855-6.496,14.032-7.28,21.775
			c-0.784,7.743-1.284,15.833-5.184,22.567c-2.383,4.115-6.112,8.163-5.354,12.857c0.379,2.349,1.902,4.4,3.787,5.852
			c1.886,1.452,4.121,2.373,6.363,3.171c13.542,4.82,28.464,5.687,42.472,2.469c2.922-0.671,5.904-1.568,8.18-3.52
			C372.006,143.235,372.645,136.653,371.256,131.131z"/>
		<g>
			<path style="fill:#F0AF9C;" d="M364.256,410.529c0,0-5.731,1.613-14.804-0.078c0,0-4.281-104.68-18.439-174.955h41.089
				C372.102,235.496,374,310.696,364.256,410.529z"/>
			<path style="fill:#F0AF9C;" d="M302.012,235.496c-7.964,86.098-7.076,174.999-7.076,174.999s6.044,3.009,14.7-0.28
				c0,0,8.967-75.205,32.765-174.72H302.012z"/>
			<path style="fill:#261643;" d="M386.411,416.406c-11.407-1.987-17.08-1.794-22.077-5.911c0,0-5.777,1.275-14.758-0.386
				c0,0-4.552,8.595-2.008,16.71h8.694l2.424-4.418l4.996,4.505h31.838C395.52,426.906,397.818,418.393,386.411,416.406z"/>
			<path style="fill:#261643;" d="M272.859,416.406c11.407-1.987,17.08-1.794,22.077-5.911c0,0,5.777,1.275,14.758-0.386
				c0,0,4.552,8.595,2.008,16.71h-8.694l-2.424-4.418l-4.996,4.505H263.75C263.75,426.906,261.452,418.393,272.859,416.406z"/>
		</g>
		<g>
			<path style="fill:#8D90FE;" d="M302.012,235.496c-4.085,20.108-4.905,36.318-13.29,64.12c0,0,59.783,8.823,93.638-0.205
				c-3.878-16.158-5.54-44.525-10.259-63.915H302.012z"/>
			<g>
				<g>
					<g>
						<g>
							<g>
								<g>
									<g>
										<g>
											<g>
												<g>
													<g>
														<g>
															<g>
																<path style="fill:#8D90FE;" d="M372.102,235.496c-29.967,9.867-70.09,0-70.09,0
																	c1.053-9.104,11.625-62.364,11.625-62.364l1.88-37.409l15.704-4.216l13.537,0.351l13.634,4.83
																	c12.016,26.071-0.064,38.562-0.064,38.562L372.102,235.496z"/>
															</g>
														</g>
													</g>
												</g>
											</g>
										</g>
									</g>
								</g>
							</g>
						</g>
					</g>
				</g>
			</g>
			<g>
				<path style="fill:#3A2664;" d="M334.043,220.83c-0.157,2.556-0.362,5.557-0.603,8.908c-2.495,34.934-8.74,107.732-8.74,107.732
					s-30.727,1.121-45.542-7.703c0,0,30.98-144.028,32.005-152.647c1.025-8.619,4.352-41.395,4.352-41.395l3.906-1.049l9.258-2.483
					C330.161,139.51,335.887,191.586,334.043,220.83z"/>
				<path style="fill:#261643;" d="M328.679,132.193c1.483,7.317,7.209,59.393,5.364,88.637c-0.157,2.556-0.362,5.557-0.603,8.908
					l-14.478-25.327l4.713-34.114l-6.98-6.714l2.724-28.907L328.679,132.193z"/>
				<path style="fill:#3A2664;" d="M395.714,333.058c-17.226,6.871-37.321,4.46-37.321,4.46c-4.665-26.182-7.86-68.361-9.836-107.78
					v-0.012c-2.315-46.495-2.917-89.156-2.17-97.292l7.293,2.58l4.713,1.676c11.729,22.458,1.085,38.587,1.085,38.587
					L395.714,333.058z"/>
				<path style="fill:#261643;" d="M352.812,172.093l5.135,33.753l-9.391,23.88c-2.315-46.495-2.917-89.156-2.17-97.292l7.293,2.58
					l5.752,27.873L352.812,172.093z"/>
			</g>
			<g>
				<g>
					<path style="fill:#F0AF9C;" d="M358.393,136.688c12.939,4.578,42.383,30.301,42.383,40.303
						c0,10.105-22.947,45.497-22.947,45.497l-6.915-7.099l14.652-37.114l-21.889-18.397
						C364.407,148.498,358.393,136.688,358.393,136.688z"/>
				</g>
				<path style="fill:#3A2664;" d="M358.393,136.688c10.711,3.481,43.05,29.559,43.358,39.305
					c0.308,9.746-11.182,27.905-11.182,27.905s-9.849-1.744-14.773-5.643l8.72-19.903l-23.391-19.082L358.393,136.688z"/>
				<g>
					<g>
						<path style="fill:#F0AF9C;" d="M371.815,215.048c-1.086,0.041-1.586,1.351-3.352,1.574c-1.767,0.223-4.611-0.946-5.895-0.412
							c-1.284,0.534-9.495,6.636-8.004,8.357c0.887,1.024,5.258-2.568,5.402-2.528c0.144,0.04-4.835,5.124-3.463,6.4
							c1.372,1.276,6.318-5.298,6.496-5.205c0.178,0.092-3.253,5.509-1.72,6.385c1.533,0.875,4.33-4.714,4.518-4.697
							c0.188,0.016-1.696,4.404-0.515,4.796c1.181,0.392,3.581-5.079,3.863-5.054c0.283,0.025,2.694,1.419,4.843,1.107
							c2.149-0.312,4.961-4.075,4.429-5.677C377.886,218.492,373.227,214.995,371.815,215.048z"/>
					</g>
				</g>
			</g>
			<g>
				<path style="fill:#F0AF9C;" d="M315.517,135.723c-15.692,4.26-43.202,30.36-42.381,42.527
					c0.821,12.167,31.185,47.509,31.185,47.509l6.071-5.857l-21.621-41.396l25.63-20.559L315.517,135.723z"/>
				<path style="fill:#F0AF9C;" d="M308.735,219.628c0,0,9.802-0.876,10.616-0.151c0.814,0.725,7.538,7.128,7.559,8.669
					c0.022,1.54-1.18,1.792-2.498,0.973c-1.318-0.819-3.154-2.702-3.154-2.702s1.556,1.075,1.38,2.811
					c-0.176,1.736-2.389,1.567-2.389,1.567s-0.989,1.145-2.423,0.989c0,0,0.358,1.025,0.128,1.355
					c-0.23,0.33-4.373,2.135-4.866,1.124c-0.62-1.271,2.026-2.39,2.026-2.39l-1.239-2.344c0,0-4.001,1.288-7.016-0.503
					c-3.015-1.791-2.367-3.885-3.268-5.455L308.735,219.628z"/>
				<path style="fill:#3A2664;" d="M315.517,135.723c-14.679,4.311-42.52,25.086-43.443,39.038
					c-0.923,13.952,15.491,32.522,15.491,32.522s9.913-2.975,14.446-7.694c0,0-12.395-21.031-12.087-21.031
					s26.264-19.903,26.264-19.903L315.517,135.723z"/>
			</g>
			<g>
				<path style="fill:#E6E7FD;" d="M308.596,238.913l-29.799-10.593c-8.507,4.045-13.276,6.313-21.783,10.358l-29.434,82.8
					l61.94,22.019l29.434-82.8C314.908,252.19,312.64,247.42,308.596,238.913z M290.009,246.371c-2.72,0-4.924-2.205-4.924-4.924
					c0-2.72,2.205-4.924,4.924-4.924s4.924,2.205,4.924,4.924C294.933,244.166,292.728,246.371,290.009,246.371z"/>
				<g>
					<g>
						<g>
							<path style="fill:#3A2664;" d="M289.952,279.593l4.893-13.764l-3.634,0.67l-2.078-11.288
								c-0.204-1.114-0.993-2.041-2.06-2.421c-1.067-0.379-2.265-0.158-3.124,0.576l-14.74,12.559
								c-1.333,1.135-1.494,3.144-0.359,4.476l0.408,0.48c0.539,0.632,1.309,1.036,2.164,1.104c0.844,0.067,1.665-0.198,2.312-0.748
								l9.728-8.288l0.886,4.815l-3.868,0.712L289.952,279.593z"/>
							<path style="fill:#3A2664;" d="M297.322,302.101l-3.568-19.031c-0.156-0.835-0.628-1.558-1.329-2.037
								c-0.701-0.479-1.544-0.657-2.378-0.5l-0.615,0.115c-0.546,0.102-1.058,0.347-1.482,0.71
								c-0.211,0.181-0.397,0.389-0.554,0.618c-0.478,0.7-0.656,1.544-0.5,2.379l2.355,12.561l-4.619-1.625l1.305-3.712
								l-14.355,2.693l9.508,11.088l1.227-3.487l10.829,3.81c1.067,0.376,2.264,0.152,3.123-0.585
								C297.127,304.362,297.531,303.213,297.322,302.101z"/>
							<path style="fill:#3A2664;" d="M271.34,292.116c-0.047-0.273-0.13-0.539-0.245-0.79c-0.355-0.77-0.988-1.356-1.784-1.651
								l-11.987-4.431l3.766-3.128l2.513,3.026l5.065-13.7l-14.398,2.463l2.362,2.843l-8.832,7.336
								c-0.87,0.723-1.292,1.865-1.102,2.979c0.191,1.115,0.968,2.051,2.029,2.444l18.164,6.715
								c0.013,0.005,0.025,0.009,0.038,0.014c1.633,0.58,3.44-0.261,4.043-1.891l0.218-0.589c0.192-0.522,0.244-1.088,0.15-1.636
								L271.34,292.116z"/>
						</g>
					</g>
					<path style="fill:#3A2664;" d="M289.378,313.744l-42.91-15.254c-0.493-0.175-1.036,0.082-1.211,0.576
						c-0.175,0.493,0.083,1.035,0.576,1.211l42.91,15.254c0.493,0.175,1.035-0.082,1.211-0.576
						C290.129,314.462,289.871,313.92,289.378,313.744z"/>
					<path style="fill:#3A2664;" d="M287.437,319.204l-42.91-15.254c-0.493-0.175-1.035,0.082-1.211,0.576
						c-0.175,0.493,0.082,1.036,0.576,1.211l42.91,15.254c0.493,0.175,1.035-0.082,1.211-0.576
						C288.188,319.921,287.931,319.379,287.437,319.204z"/>
					<path style="fill:#3A2664;" d="M285.496,324.663l-42.91-15.254c-0.493-0.175-1.035,0.082-1.211,0.576s0.082,1.035,0.576,1.211
						l42.91,15.254c0.493,0.175,1.035-0.082,1.211-0.576C286.248,325.381,285.99,324.839,285.496,324.663z"/>
				</g>
				<path style="fill:#261643;" d="M305.999,207.316c-1.517-0.21-2.174,2.113-0.641,2.325c1.778,0.245,0.304,4.567-0.015,5.65
					c-0.599,2.036-1.456,3.978-2.537,5.804c-2.077,3.508-4.959,6.472-8.407,8.642c-0.09-0.045-0.174-0.1-0.271-0.135
					c-1.427-0.517-2.727,0.395-3.518,1.519c-1.453,2.066-1.738,4.972-0.977,7.343c0.192,0.599,0.845,1.048,1.483,0.842
					c0.6-0.194,1.048-0.84,0.842-1.483c-0.07-0.218-0.133-0.437-0.183-0.66c-0.023-0.101-0.044-0.203-0.063-0.305
					c-0.003-0.019-0.025-0.162-0.034-0.214c-0.005-0.059-0.018-0.188-0.02-0.206c-0.01-0.124-0.017-0.248-0.021-0.373
					c-0.007-0.207-0.004-0.415,0.007-0.622c0.005-0.104,0.013-0.207,0.023-0.311c0.003-0.035,0.013-0.112,0.017-0.15
					c0.033-0.213,0.074-0.425,0.125-0.634c0.049-0.202,0.107-0.401,0.172-0.598c0.033-0.098,0.068-0.196,0.104-0.293
					c0.015-0.042,0.025-0.068,0.032-0.089c0.01-0.019,0.021-0.043,0.04-0.082c0.162-0.344,0.342-0.696,0.574-1.001
					c0.028-0.027,0.136-0.149,0.14-0.153c0.011-0.011,0.087-0.082,0.13-0.123c0.041-0.026,0.141-0.095,0.157-0.105
					c0.018-0.009,0.019-0.01,0.032-0.016c0.008-0.002,0.012-0.003,0.032-0.009c0.031-0.008,0.033-0.01,0.038-0.013
					c0.008,0,0.015-0.001,0.023-0.001c0.009,0.001,0.008,0,0.016,0.001c0.012,0.004,0.035,0.01,0.074,0.019
					c0.017,0.013,0.035,0.025,0.054,0.038l0,0c-0.01-0.007-0.009-0.006-0.022-0.014c0.011,0.011,0.022,0.023,0.033,0.034
					c0.004,0.008,0.001,0.005,0.01,0.018c0.007,0.013,0.006,0.009,0.01,0.017c-0.001,0.032-0.002,0.054-0.001,0.068
					c-0.015,0.027-0.058,0.139-0.083,0.178c-0.344,0.53-0.125,1.355,0.432,1.649c0.6,0.317,1.282,0.133,1.649-0.432
					c0.358-0.552,0.462-1.175,0.371-1.763c4.179-2.676,7.628-6.439,9.886-10.864c1.159-2.272,2.032-4.7,2.524-7.205
					C308.665,211.425,309.067,207.74,305.999,207.316z"/>
			</g>
		</g>
		<g>
			<g>
				<g>
					<path style="fill:#F0AF9C;" d="M360.548,108.176c-0.02,0.103-0.03,0.196-0.049,0.299c-0.866,5.061-2.894,8.177-5.598,10.427
						c-1.903,1.602-3.604,2.616-5.016,3.604c-0.273,0.185-0.527,0.379-0.781,0.573c-2.626,1.969-4.179,4.201-4.236,10.887
						c-2.321,5.676-11.025,6.396-13.775-0.118c0.163-8.079-1.311-15.068-2.629-19.578c-0.327-1.181-0.655-2.185-0.938-2.991
						c-0.539-1.538-0.924-2.393-0.924-2.393s0.526-17.765,3.119-22.456c6.326-11.337,28.156-7.259,29.781,1.826
						C361.091,97.098,361.299,103.469,360.548,108.176z"/>
					<path d="M361.913,95.853c-2.567-0.121-5.09-1.055-7.116-2.636c-2.026-1.581-3.547-3.8-4.288-6.261
						c-1.066,2.853-3.097,5.233-5.688,6.834c-2.591,1.601-5.721,2.313-8.749,1.99c-0.525,2.477-2.016,4.804-3.963,6.424
						c-1.947,1.619-4.448,2.56-6.979,2.625c-0.671-5.013-0.676-10.321,0.799-15.159c0.903-2.961,2.593-5.669,4.806-7.833
						c3.751-3.668,9.033-5.718,14.277-5.543s10.376,2.575,13.875,6.485C362.055,86.322,363.387,91.333,361.913,95.853z"/>
					<g>
						<g>
							<path d="M342.961,104.167c-0.007,0.765,0.609,1.391,1.374,1.397c0.765,0.007,1.391-0.608,1.398-1.374
								c0.007-0.765-0.609-1.391-1.374-1.397C343.594,102.786,342.968,103.402,342.961,104.167z"/>
							<path style="fill:#FFFFFF;" d="M344.35,103.8c-0.002,0.28,0.223,0.509,0.503,0.512c0.28,0.002,0.509-0.223,0.512-0.503
								c0.002-0.28-0.223-0.509-0.503-0.512C344.582,103.294,344.353,103.52,344.35,103.8z"/>
						</g>
						<g>
							<path d="M353.678,104.258c-0.007,0.765,0.609,1.391,1.374,1.397c0.765,0.007,1.391-0.608,1.397-1.374
								c0.007-0.765-0.609-1.391-1.374-1.397C354.311,102.878,353.685,103.493,353.678,104.258z"/>
							<path style="fill:#FFFFFF;" d="M355.067,103.892c-0.002,0.28,0.223,0.509,0.503,0.512c0.28,0.002,0.509-0.223,0.512-0.503
								c0.002-0.28-0.223-0.509-0.503-0.512C355.299,103.386,355.07,103.611,355.067,103.892z"/>
						</g>
						<path d="M352.797,98.826c1.751-1.197,4.011-1.108,5.639,0.325c0.305,0.268,0.354,0.803,0.118,1.147
							c-0.242,0.351-0.695,0.406-1,0.137c-0.668-0.588-1.524-0.858-2.362-0.803c-0.423,0.028-0.843,0.137-1.234,0.328
							c-0.346,0.169-0.684,0.464-1.069,0.238c-0.092-0.054-0.171-0.133-0.233-0.227C352.445,99.648,352.465,99.053,352.797,98.826z"
							/>
						<path d="M347.396,98.78c-1.985-1.229-4.578-1.181-6.471,0.221c-0.354,0.263-0.42,0.796-0.156,1.144
							c0.27,0.356,0.789,0.419,1.144,0.156c0.777-0.575,1.762-0.819,2.72-0.747c0.484,0.037,0.963,0.152,1.409,0.345
							c0.394,0.169,0.78,0.467,1.222,0.25c0.106-0.052,0.198-0.13,0.27-0.222C347.785,99.609,347.773,99.013,347.396,98.78z"/>
						<path style="fill:#C2765F;" d="M351.925,108.001c0.078,0.001,0.151-0.05,0.175-0.129c0.353-1.179-0.045-1.584-0.441-1.716
							c-0.402-0.132-0.886-0.032-1.438,0.302c-0.085,0.051-0.112,0.163-0.061,0.249c0.053,0.085,0.165,0.111,0.249,0.061
							c0.456-0.276,0.838-0.367,1.135-0.268c0.355,0.118,0.426,0.545,0.209,1.268c-0.028,0.095,0.026,0.196,0.122,0.225
							C351.891,107.999,351.908,108.001,351.925,108.001z"/>
						<path style="fill:#C16B5B;" d="M350.979,112.076c0.815-0.041,1.654-0.262,2.45-0.734c0.372-0.22,0.495-0.699,0.275-1.07
							c-0.219-0.371-0.698-0.494-1.07-0.275c-1.924,1.136-4.18,0.181-4.853-0.65c-0.271-0.333-0.764-0.387-1.099-0.115
							c-0.335,0.272-0.386,0.763-0.115,1.099C347.358,111.308,349.103,112.171,350.979,112.076z"/>
					</g>
					<g>
						<path style="fill:#F0AF9C;" d="M321.81,109.254c1.856,2.252,4.809,2.883,6.596,1.41c1.787-1.473,1.731-4.492-0.124-6.744
							c-1.856-2.251-4.809-2.883-6.596-1.41C319.899,103.983,319.954,107.002,321.81,109.254z"/>
						<path style="fill:#C2765F;" d="M322.9,103.615c0.801-0.415,1.864-0.386,2.841,0.079c0.488,0.231,0.84,0.511,1.08,0.854
							c0.317,0.455,0.401,1.024,0.219,1.484c-0.162,0.413-0.495,0.679-0.788,0.914c-0.213,0.17-0.414,0.331-0.528,0.523
							c-0.176,0.296-0.136,0.714,0.094,0.971c0.229,0.257,0.639,0.343,0.953,0.201c0.185-0.083,0.401-0.001,0.485,0.183
							c0.083,0.184,0.002,0.401-0.183,0.485c-0.202,0.091-0.42,0.134-0.639,0.132c-0.435-0.004-0.869-0.184-1.163-0.513
							c-0.441-0.494-0.515-1.264-0.177-1.833c0.182-0.307,0.457-0.527,0.7-0.721c0.243-0.195,0.473-0.379,0.564-0.61
							c0.092-0.232,0.037-0.544-0.139-0.797c-0.071-0.102-0.168-0.194-0.275-0.283c-0.364-0.006-0.82,0.102-1.053,0.351
							c-0.261,0.282-0.387,0.692-0.328,1.07c0.031,0.2-0.106,0.387-0.306,0.418c-0.02,0.003-0.04,0.005-0.06,0.004
							c-0.176-0.002-0.33-0.13-0.358-0.31c-0.095-0.604,0.098-1.233,0.515-1.682c0.155-0.167,0.349-0.279,0.551-0.37
							c-0.605-0.169-1.203-0.141-1.669,0.1c-0.576,0.298-1.015,1.076-0.726,1.715c0.083,0.185,0.001,0.401-0.183,0.485
							c-0.185,0.083-0.401,0.002-0.485-0.183C321.423,105.352,321.907,104.13,322.9,103.615z"/>
					</g>
				</g>
			</g>
		</g>
	</g>
	<g>
		<g>
			<rect x="117.986" y="373.976" style="fill:#E6E7FD;" width="54.243" height="52.93"/>
			<rect x="172.229" y="373.976" style="fill:#BFBFFC;" width="24.291" height="52.93"/>
			<rect x="140.981" y="373.976" style="fill:#BFBFFC;" width="8.254" height="7.416"/>
			<path style="fill:#BFBFFC;" d="M149.093,390.144c-2.74,1.013-5.496,2.045-8.043,3.711s-4.9,4.021-6.399,7.192
				c-0.974,2.06-1.566,4.443-1.626,6.865c-0.051,2.053,0.291,4.127,1.009,5.949c1.974-7.149,5.459-13.576,9.979-18.344
				c-3.366,5.19-6.061,12.396-7.718,19.56c1.717,0.171,3.482,0.139,5.132-0.25c2.248-0.531,4.436-1.738,6.132-3.743
				c1.696-2.005,2.863-4.849,2.955-7.839C150.65,398.84,148.549,394.494,149.093,390.144z"/>
		</g>
		<g>
			<rect x="188.36" y="373.976" style="fill:#E6E7FD;" width="54.243" height="52.93"/>
			<rect x="242.603" y="373.976" style="fill:#BFBFFC;" width="24.291" height="52.93"/>
			<rect x="211.355" y="373.976" style="fill:#BFBFFC;" width="8.254" height="7.416"/>
			<path style="fill:#BFBFFC;" d="M219.468,390.144c-2.74,1.013-5.496,2.045-8.043,3.711c-2.547,1.666-4.9,4.021-6.399,7.192
				c-0.974,2.06-1.565,4.443-1.626,6.865c-0.051,2.053,0.291,4.127,1.009,5.949c1.975-7.149,5.459-13.576,9.979-18.344
				c-3.365,5.19-6.061,12.396-7.718,19.56c1.717,0.171,3.482,0.139,5.132-0.25c2.248-0.531,4.436-1.738,6.132-3.743
				c1.696-2.005,2.864-4.849,2.955-7.839C221.024,398.84,218.923,394.494,219.468,390.144z"/>
		</g>
		<g>
			<rect x="142.539" y="321.046" style="fill:#E6E7FD;" width="54.243" height="52.93"/>
			<rect x="196.782" y="321.046" style="fill:#BFBFFC;" width="24.291" height="52.93"/>
			<rect x="165.534" y="321.046" style="fill:#BFBFFC;" width="8.254" height="7.416"/>
			<path style="fill:#BFBFFC;" d="M173.647,337.214c-2.74,1.013-5.496,2.045-8.043,3.71c-2.547,1.666-4.9,4.021-6.399,7.192
				c-0.974,2.06-1.566,4.443-1.626,6.865c-0.051,2.053,0.291,4.127,1.009,5.949c1.974-7.149,5.459-13.576,9.979-18.344
				c-3.366,5.19-6.061,12.396-7.718,19.56c1.717,0.171,3.482,0.139,5.132-0.25c2.248-0.531,4.436-1.738,6.132-3.743
				c1.696-2.005,2.864-4.849,2.955-7.84C175.203,345.91,173.102,341.563,173.647,337.214z"/>
		</g>
	</g>
</g>
</svg>
